<mxfile host="Electron" modified="2023-05-01T12:32:21.992Z" agent="Mozilla/5.0 (Windows NT 10.0; Win64; x64) AppleWebKit/537.36 (KHTML, like Gecko) draw.io/21.1.2 Chrome/106.0.5249.199 Electron/21.4.3 Safari/537.36" etag="HH7ZkgohT2_ogbHQ3EnU" version="21.1.2" type="device">
  <diagram name="Page-1" id="idJuFPYn9hV5yrZdCupl">
    <mxGraphModel dx="1773" dy="1025" grid="1" gridSize="10" guides="1" tooltips="1" connect="1" arrows="1" fold="1" page="1" pageScale="1" pageWidth="1169" pageHeight="827" math="0" shadow="0">
      <root>
        <mxCell id="0" />
        <mxCell id="1" parent="0" />
        <mxCell id="EEpnmldtAj-1UgnT-heI-1" value="CNode" style="swimlane;fontStyle=0;childLayout=stackLayout;horizontal=1;startSize=26;fillColor=none;horizontalStack=0;resizeParent=1;resizeParentMax=0;resizeLast=0;collapsible=1;marginBottom=0;whiteSpace=wrap;html=1;fontFamily=Times New Roman;fontSize=14;" vertex="1" parent="1">
          <mxGeometry x="70" y="345" width="140" height="52" as="geometry" />
        </mxCell>
        <mxCell id="EEpnmldtAj-1UgnT-heI-149" style="edgeStyle=orthogonalEdgeStyle;rounded=0;orthogonalLoop=1;jettySize=auto;html=1;endArrow=none;endFill=0;fontFamily=Times New Roman;fontSize=14;" edge="1" parent="1" source="EEpnmldtAj-1UgnT-heI-97">
          <mxGeometry relative="1" as="geometry">
            <mxPoint x="510" y="159" as="targetPoint" />
          </mxGeometry>
        </mxCell>
        <mxCell id="EEpnmldtAj-1UgnT-heI-97" value="SelectionStatementNode" style="swimlane;fontStyle=0;childLayout=stackLayout;horizontal=1;startSize=26;fillColor=none;horizontalStack=0;resizeParent=1;resizeParentMax=0;resizeLast=0;collapsible=1;marginBottom=0;whiteSpace=wrap;html=1;fontFamily=Times New Roman;fontSize=14;" vertex="1" parent="1">
          <mxGeometry x="550" y="133" width="210" height="52" as="geometry" />
        </mxCell>
        <mxCell id="EEpnmldtAj-1UgnT-heI-98" value="+ condition: String&amp;nbsp;" style="text;strokeColor=none;fillColor=none;align=left;verticalAlign=top;spacingLeft=4;spacingRight=4;overflow=hidden;rotatable=0;points=[[0,0.5],[1,0.5]];portConstraint=eastwest;whiteSpace=wrap;html=1;fontFamily=Times New Roman;fontSize=14;" vertex="1" parent="EEpnmldtAj-1UgnT-heI-97">
          <mxGeometry y="26" width="210" height="26" as="geometry" />
        </mxCell>
        <mxCell id="EEpnmldtAj-1UgnT-heI-163" style="edgeStyle=orthogonalEdgeStyle;rounded=0;orthogonalLoop=1;jettySize=auto;html=1;endArrow=none;endFill=0;" edge="1" parent="1" source="EEpnmldtAj-1UgnT-heI-99">
          <mxGeometry relative="1" as="geometry">
            <mxPoint x="230" y="371" as="targetPoint" />
          </mxGeometry>
        </mxCell>
        <mxCell id="EEpnmldtAj-1UgnT-heI-99" value="ProgramNode" style="swimlane;fontStyle=0;childLayout=stackLayout;horizontal=1;startSize=26;fillColor=none;horizontalStack=0;resizeParent=1;resizeParentMax=0;resizeLast=0;collapsible=1;marginBottom=0;whiteSpace=wrap;html=1;fontFamily=Times New Roman;fontSize=14;" vertex="1" parent="1">
          <mxGeometry x="260" y="345" width="205" height="52" as="geometry" />
        </mxCell>
        <mxCell id="EEpnmldtAj-1UgnT-heI-100" value="+ functions: List&amp;lt;FunctionNode&amp;gt;" style="text;strokeColor=none;fillColor=none;align=left;verticalAlign=top;spacingLeft=4;spacingRight=4;overflow=hidden;rotatable=0;points=[[0,0.5],[1,0.5]];portConstraint=eastwest;whiteSpace=wrap;html=1;fontFamily=Times New Roman;fontSize=14;" vertex="1" parent="EEpnmldtAj-1UgnT-heI-99">
          <mxGeometry y="26" width="205" height="26" as="geometry" />
        </mxCell>
        <mxCell id="EEpnmldtAj-1UgnT-heI-162" style="edgeStyle=orthogonalEdgeStyle;rounded=0;orthogonalLoop=1;jettySize=auto;html=1;endArrow=none;endFill=0;" edge="1" parent="1" source="EEpnmldtAj-1UgnT-heI-101">
          <mxGeometry relative="1" as="geometry">
            <mxPoint x="240" y="365" as="targetPoint" />
          </mxGeometry>
        </mxCell>
        <mxCell id="EEpnmldtAj-1UgnT-heI-101" value="FunctionNode" style="swimlane;fontStyle=0;childLayout=stackLayout;horizontal=1;startSize=26;fillColor=none;horizontalStack=0;resizeParent=1;resizeParentMax=0;resizeLast=0;collapsible=1;marginBottom=0;whiteSpace=wrap;html=1;fontFamily=Times New Roman;fontSize=14;" vertex="1" parent="1">
          <mxGeometry x="260" y="435" width="230" height="104" as="geometry" />
        </mxCell>
        <mxCell id="EEpnmldtAj-1UgnT-heI-102" value="+ name: String" style="text;strokeColor=none;fillColor=none;align=left;verticalAlign=top;spacingLeft=4;spacingRight=4;overflow=hidden;rotatable=0;points=[[0,0.5],[1,0.5]];portConstraint=eastwest;whiteSpace=wrap;html=1;fontFamily=Times New Roman;fontSize=14;" vertex="1" parent="EEpnmldtAj-1UgnT-heI-101">
          <mxGeometry y="26" width="230" height="26" as="geometry" />
        </mxCell>
        <mxCell id="EEpnmldtAj-1UgnT-heI-105" value="+ definition: String" style="text;strokeColor=none;fillColor=none;align=left;verticalAlign=top;spacingLeft=4;spacingRight=4;overflow=hidden;rotatable=0;points=[[0,0.5],[1,0.5]];portConstraint=eastwest;whiteSpace=wrap;html=1;fontFamily=Times New Roman;fontSize=14;" vertex="1" parent="EEpnmldtAj-1UgnT-heI-101">
          <mxGeometry y="52" width="230" height="26" as="geometry" />
        </mxCell>
        <mxCell id="EEpnmldtAj-1UgnT-heI-106" value="+ body: CompoundStatementNode" style="text;strokeColor=none;fillColor=none;align=left;verticalAlign=top;spacingLeft=4;spacingRight=4;overflow=hidden;rotatable=0;points=[[0,0.5],[1,0.5]];portConstraint=eastwest;whiteSpace=wrap;html=1;fontFamily=Times New Roman;fontSize=14;" vertex="1" parent="EEpnmldtAj-1UgnT-heI-101">
          <mxGeometry y="78" width="230" height="26" as="geometry" />
        </mxCell>
        <mxCell id="EEpnmldtAj-1UgnT-heI-161" style="edgeStyle=orthogonalEdgeStyle;rounded=0;orthogonalLoop=1;jettySize=auto;html=1;entryX=1;entryY=0.5;entryDx=0;entryDy=0;endArrow=blockThin;endFill=0;endSize=16;" edge="1" parent="1" source="EEpnmldtAj-1UgnT-heI-103" target="EEpnmldtAj-1UgnT-heI-1">
          <mxGeometry relative="1" as="geometry">
            <Array as="points">
              <mxPoint x="240" y="291" />
              <mxPoint x="240" y="371" />
            </Array>
          </mxGeometry>
        </mxCell>
        <mxCell id="EEpnmldtAj-1UgnT-heI-103" value="StatementNode" style="swimlane;fontStyle=0;childLayout=stackLayout;horizontal=1;startSize=26;fillColor=none;horizontalStack=0;resizeParent=1;resizeParentMax=0;resizeLast=0;collapsible=1;marginBottom=0;whiteSpace=wrap;html=1;fontFamily=Times New Roman;fontSize=14;" vertex="1" parent="1">
          <mxGeometry x="260" y="265" width="205" height="52" as="geometry" />
        </mxCell>
        <mxCell id="EEpnmldtAj-1UgnT-heI-151" style="edgeStyle=orthogonalEdgeStyle;rounded=0;orthogonalLoop=1;jettySize=auto;html=1;endArrow=none;endFill=0;fontFamily=Times New Roman;fontSize=14;" edge="1" parent="1" source="EEpnmldtAj-1UgnT-heI-107">
          <mxGeometry relative="1" as="geometry">
            <mxPoint x="510" y="259.0000000000001" as="targetPoint" />
          </mxGeometry>
        </mxCell>
        <mxCell id="EEpnmldtAj-1UgnT-heI-107" value="DeclarationStatementNode" style="swimlane;fontStyle=0;childLayout=stackLayout;horizontal=1;startSize=26;fillColor=none;horizontalStack=0;resizeParent=1;resizeParentMax=0;resizeLast=0;collapsible=1;marginBottom=0;whiteSpace=wrap;html=1;fontFamily=Times New Roman;fontSize=14;" vertex="1" parent="1">
          <mxGeometry x="550" y="233" width="210" height="52" as="geometry" />
        </mxCell>
        <mxCell id="EEpnmldtAj-1UgnT-heI-108" value="+ name: String&amp;nbsp;" style="text;strokeColor=none;fillColor=none;align=left;verticalAlign=top;spacingLeft=4;spacingRight=4;overflow=hidden;rotatable=0;points=[[0,0.5],[1,0.5]];portConstraint=eastwest;whiteSpace=wrap;html=1;fontFamily=Times New Roman;fontSize=14;" vertex="1" parent="EEpnmldtAj-1UgnT-heI-107">
          <mxGeometry y="26" width="210" height="26" as="geometry" />
        </mxCell>
        <mxCell id="EEpnmldtAj-1UgnT-heI-152" style="edgeStyle=orthogonalEdgeStyle;rounded=0;orthogonalLoop=1;jettySize=auto;html=1;endArrow=none;endFill=0;fontFamily=Times New Roman;fontSize=14;" edge="1" parent="1" source="EEpnmldtAj-1UgnT-heI-115">
          <mxGeometry relative="1" as="geometry">
            <mxPoint x="510" y="385" as="targetPoint" />
          </mxGeometry>
        </mxCell>
        <mxCell id="EEpnmldtAj-1UgnT-heI-115" value="IterationStatementNode" style="swimlane;fontStyle=0;childLayout=stackLayout;horizontal=1;startSize=26;fillColor=none;horizontalStack=0;resizeParent=1;resizeParentMax=0;resizeLast=0;collapsible=1;marginBottom=0;whiteSpace=wrap;html=1;fontFamily=Times New Roman;fontSize=14;" vertex="1" parent="1">
          <mxGeometry x="550" y="333" width="230" height="104" as="geometry" />
        </mxCell>
        <mxCell id="EEpnmldtAj-1UgnT-heI-116" value="+ condition: String" style="text;strokeColor=none;fillColor=none;align=left;verticalAlign=top;spacingLeft=4;spacingRight=4;overflow=hidden;rotatable=0;points=[[0,0.5],[1,0.5]];portConstraint=eastwest;whiteSpace=wrap;html=1;fontFamily=Times New Roman;fontSize=14;" vertex="1" parent="EEpnmldtAj-1UgnT-heI-115">
          <mxGeometry y="26" width="230" height="26" as="geometry" />
        </mxCell>
        <mxCell id="EEpnmldtAj-1UgnT-heI-117" value="+ body: CompoundStatementNode" style="text;strokeColor=none;fillColor=none;align=left;verticalAlign=top;spacingLeft=4;spacingRight=4;overflow=hidden;rotatable=0;points=[[0,0.5],[1,0.5]];portConstraint=eastwest;whiteSpace=wrap;html=1;fontFamily=Times New Roman;fontSize=14;" vertex="1" parent="EEpnmldtAj-1UgnT-heI-115">
          <mxGeometry y="52" width="230" height="26" as="geometry" />
        </mxCell>
        <mxCell id="EEpnmldtAj-1UgnT-heI-118" value="+ type: IterationStatementNodeType" style="text;strokeColor=none;fillColor=none;align=left;verticalAlign=top;spacingLeft=4;spacingRight=4;overflow=hidden;rotatable=0;points=[[0,0.5],[1,0.5]];portConstraint=eastwest;whiteSpace=wrap;html=1;fontFamily=Times New Roman;fontSize=14;" vertex="1" parent="EEpnmldtAj-1UgnT-heI-115">
          <mxGeometry y="78" width="230" height="26" as="geometry" />
        </mxCell>
        <mxCell id="EEpnmldtAj-1UgnT-heI-154" style="edgeStyle=orthogonalEdgeStyle;rounded=0;orthogonalLoop=1;jettySize=auto;html=1;endArrow=none;endFill=0;fontFamily=Times New Roman;fontSize=14;" edge="1" parent="1" source="EEpnmldtAj-1UgnT-heI-119">
          <mxGeometry relative="1" as="geometry">
            <mxPoint x="510" y="617" as="targetPoint" />
          </mxGeometry>
        </mxCell>
        <mxCell id="EEpnmldtAj-1UgnT-heI-119" value="LabeledStatementNode" style="swimlane;fontStyle=0;childLayout=stackLayout;horizontal=1;startSize=26;fillColor=none;horizontalStack=0;resizeParent=1;resizeParentMax=0;resizeLast=0;collapsible=1;marginBottom=0;whiteSpace=wrap;html=1;fontFamily=Times New Roman;fontSize=14;" vertex="1" parent="1">
          <mxGeometry x="550" y="565" width="230" height="104" as="geometry" />
        </mxCell>
        <mxCell id="EEpnmldtAj-1UgnT-heI-120" value="+ label: String" style="text;strokeColor=none;fillColor=none;align=left;verticalAlign=top;spacingLeft=4;spacingRight=4;overflow=hidden;rotatable=0;points=[[0,0.5],[1,0.5]];portConstraint=eastwest;whiteSpace=wrap;html=1;fontFamily=Times New Roman;fontSize=14;" vertex="1" parent="EEpnmldtAj-1UgnT-heI-119">
          <mxGeometry y="26" width="230" height="26" as="geometry" />
        </mxCell>
        <mxCell id="EEpnmldtAj-1UgnT-heI-121" value="+ body: CompoundStatementNode" style="text;strokeColor=none;fillColor=none;align=left;verticalAlign=top;spacingLeft=4;spacingRight=4;overflow=hidden;rotatable=0;points=[[0,0.5],[1,0.5]];portConstraint=eastwest;whiteSpace=wrap;html=1;fontFamily=Times New Roman;fontSize=14;" vertex="1" parent="EEpnmldtAj-1UgnT-heI-119">
          <mxGeometry y="52" width="230" height="26" as="geometry" />
        </mxCell>
        <mxCell id="EEpnmldtAj-1UgnT-heI-122" value="+ type: LabeledStatementNodeType" style="text;strokeColor=none;fillColor=none;align=left;verticalAlign=top;spacingLeft=4;spacingRight=4;overflow=hidden;rotatable=0;points=[[0,0.5],[1,0.5]];portConstraint=eastwest;whiteSpace=wrap;html=1;fontFamily=Times New Roman;fontSize=14;" vertex="1" parent="EEpnmldtAj-1UgnT-heI-119">
          <mxGeometry y="78" width="230" height="26" as="geometry" />
        </mxCell>
        <mxCell id="EEpnmldtAj-1UgnT-heI-150" style="edgeStyle=orthogonalEdgeStyle;rounded=0;orthogonalLoop=1;jettySize=auto;html=1;endArrow=none;endFill=0;fontFamily=Times New Roman;fontSize=14;" edge="1" parent="1" source="EEpnmldtAj-1UgnT-heI-127">
          <mxGeometry relative="1" as="geometry">
            <mxPoint x="510" y="285" as="targetPoint" />
            <Array as="points">
              <mxPoint x="510" y="734" />
              <mxPoint x="510" y="285" />
            </Array>
          </mxGeometry>
        </mxCell>
        <mxCell id="EEpnmldtAj-1UgnT-heI-127" value="JumpStatementNode" style="swimlane;fontStyle=0;childLayout=stackLayout;horizontal=1;startSize=26;fillColor=none;horizontalStack=0;resizeParent=1;resizeParentMax=0;resizeLast=0;collapsible=1;marginBottom=0;whiteSpace=wrap;html=1;fontFamily=Times New Roman;fontSize=14;" vertex="1" parent="1">
          <mxGeometry x="550" y="695" width="210" height="78" as="geometry" />
        </mxCell>
        <mxCell id="EEpnmldtAj-1UgnT-heI-128" value="+ label: String&amp;nbsp;" style="text;strokeColor=none;fillColor=none;align=left;verticalAlign=top;spacingLeft=4;spacingRight=4;overflow=hidden;rotatable=0;points=[[0,0.5],[1,0.5]];portConstraint=eastwest;whiteSpace=wrap;html=1;fontFamily=Times New Roman;fontSize=14;" vertex="1" parent="EEpnmldtAj-1UgnT-heI-127">
          <mxGeometry y="26" width="210" height="26" as="geometry" />
        </mxCell>
        <mxCell id="EEpnmldtAj-1UgnT-heI-129" value="+ type: JumpStatementNodeType" style="text;strokeColor=none;fillColor=none;align=left;verticalAlign=top;spacingLeft=4;spacingRight=4;overflow=hidden;rotatable=0;points=[[0,0.5],[1,0.5]];portConstraint=eastwest;whiteSpace=wrap;html=1;fontFamily=Times New Roman;fontSize=14;" vertex="1" parent="EEpnmldtAj-1UgnT-heI-127">
          <mxGeometry y="52" width="210" height="26" as="geometry" />
        </mxCell>
        <mxCell id="EEpnmldtAj-1UgnT-heI-153" style="edgeStyle=orthogonalEdgeStyle;rounded=0;orthogonalLoop=1;jettySize=auto;html=1;endArrow=none;endFill=0;fontFamily=Times New Roman;fontSize=14;" edge="1" parent="1" source="EEpnmldtAj-1UgnT-heI-130">
          <mxGeometry relative="1" as="geometry">
            <mxPoint x="510" y="501" as="targetPoint" />
          </mxGeometry>
        </mxCell>
        <mxCell id="EEpnmldtAj-1UgnT-heI-130" value="ExpressionStatementNode" style="swimlane;fontStyle=0;childLayout=stackLayout;horizontal=1;startSize=26;fillColor=none;horizontalStack=0;resizeParent=1;resizeParentMax=0;resizeLast=0;collapsible=1;marginBottom=0;whiteSpace=wrap;html=1;fontFamily=Times New Roman;fontSize=14;" vertex="1" parent="1">
          <mxGeometry x="550" y="475" width="210" height="52" as="geometry" />
        </mxCell>
        <mxCell id="EEpnmldtAj-1UgnT-heI-147" style="edgeStyle=orthogonalEdgeStyle;rounded=0;orthogonalLoop=1;jettySize=auto;html=1;entryX=1;entryY=0.5;entryDx=0;entryDy=0;endArrow=blockThin;endFill=0;endSize=16;fontFamily=Times New Roman;fontSize=14;" edge="1" parent="1" source="EEpnmldtAj-1UgnT-heI-132" target="EEpnmldtAj-1UgnT-heI-103">
          <mxGeometry relative="1" as="geometry">
            <Array as="points">
              <mxPoint x="510" y="79" />
              <mxPoint x="510" y="291" />
            </Array>
          </mxGeometry>
        </mxCell>
        <mxCell id="EEpnmldtAj-1UgnT-heI-132" value="CompoundStatementNode" style="swimlane;fontStyle=0;childLayout=stackLayout;horizontal=1;startSize=26;fillColor=none;horizontalStack=0;resizeParent=1;resizeParentMax=0;resizeLast=0;collapsible=1;marginBottom=0;whiteSpace=wrap;html=1;fontFamily=Times New Roman;fontSize=14;" vertex="1" parent="1">
          <mxGeometry x="550" y="53" width="230" height="52" as="geometry" />
        </mxCell>
        <mxCell id="EEpnmldtAj-1UgnT-heI-133" value="+ statements: List&amp;lt;StatementNode&amp;gt;" style="text;strokeColor=none;fillColor=none;align=left;verticalAlign=top;spacingLeft=4;spacingRight=4;overflow=hidden;rotatable=0;points=[[0,0.5],[1,0.5]];portConstraint=eastwest;whiteSpace=wrap;html=1;fontFamily=Times New Roman;fontSize=14;" vertex="1" parent="EEpnmldtAj-1UgnT-heI-132">
          <mxGeometry y="26" width="230" height="26" as="geometry" />
        </mxCell>
        <mxCell id="EEpnmldtAj-1UgnT-heI-134" value="IfStatementNode" style="swimlane;fontStyle=0;childLayout=stackLayout;horizontal=1;startSize=26;fillColor=none;horizontalStack=0;resizeParent=1;resizeParentMax=0;resizeLast=0;collapsible=1;marginBottom=0;whiteSpace=wrap;html=1;fontFamily=Times New Roman;fontSize=14;" vertex="1" parent="1">
          <mxGeometry x="830" y="81" width="250" height="78" as="geometry" />
        </mxCell>
        <mxCell id="EEpnmldtAj-1UgnT-heI-135" value="+ ifBody: CompoundStatementNode" style="text;strokeColor=none;fillColor=none;align=left;verticalAlign=top;spacingLeft=4;spacingRight=4;overflow=hidden;rotatable=0;points=[[0,0.5],[1,0.5]];portConstraint=eastwest;whiteSpace=wrap;html=1;fontFamily=Times New Roman;fontSize=14;" vertex="1" parent="EEpnmldtAj-1UgnT-heI-134">
          <mxGeometry y="26" width="250" height="26" as="geometry" />
        </mxCell>
        <mxCell id="EEpnmldtAj-1UgnT-heI-136" value="+ elseBody: CompoundStatementNode" style="text;strokeColor=none;fillColor=none;align=left;verticalAlign=top;spacingLeft=4;spacingRight=4;overflow=hidden;rotatable=0;points=[[0,0.5],[1,0.5]];portConstraint=eastwest;whiteSpace=wrap;html=1;fontFamily=Times New Roman;fontSize=14;" vertex="1" parent="EEpnmldtAj-1UgnT-heI-134">
          <mxGeometry y="52" width="250" height="26" as="geometry" />
        </mxCell>
        <mxCell id="EEpnmldtAj-1UgnT-heI-156" style="edgeStyle=orthogonalEdgeStyle;rounded=0;orthogonalLoop=1;jettySize=auto;html=1;exitX=0;exitY=0.5;exitDx=0;exitDy=0;endArrow=none;endFill=0;fontFamily=Times New Roman;fontSize=14;" edge="1" parent="1" source="EEpnmldtAj-1UgnT-heI-137">
          <mxGeometry relative="1" as="geometry">
            <mxPoint x="799.9999999999995" y="155" as="targetPoint" />
          </mxGeometry>
        </mxCell>
        <mxCell id="EEpnmldtAj-1UgnT-heI-137" value="SwitchStatementNode" style="swimlane;fontStyle=0;childLayout=stackLayout;horizontal=1;startSize=26;fillColor=none;horizontalStack=0;resizeParent=1;resizeParentMax=0;resizeLast=0;collapsible=1;marginBottom=0;whiteSpace=wrap;html=1;fontFamily=Times New Roman;fontSize=14;" vertex="1" parent="1">
          <mxGeometry x="830" y="181" width="270" height="52" as="geometry" />
        </mxCell>
        <mxCell id="EEpnmldtAj-1UgnT-heI-138" value="+ statements: List&amp;lt;LabeledStatementNode&amp;gt;" style="text;strokeColor=none;fillColor=none;align=left;verticalAlign=top;spacingLeft=4;spacingRight=4;overflow=hidden;rotatable=0;points=[[0,0.5],[1,0.5]];portConstraint=eastwest;whiteSpace=wrap;html=1;fontFamily=Times New Roman;fontSize=14;" vertex="1" parent="EEpnmldtAj-1UgnT-heI-137">
          <mxGeometry y="26" width="270" height="26" as="geometry" />
        </mxCell>
        <mxCell id="EEpnmldtAj-1UgnT-heI-139" value="FunctionCallStatementNode" style="swimlane;fontStyle=0;childLayout=stackLayout;horizontal=1;startSize=26;fillColor=none;horizontalStack=0;resizeParent=1;resizeParentMax=0;resizeLast=0;collapsible=1;marginBottom=0;whiteSpace=wrap;html=1;fontFamily=Times New Roman;fontSize=14;" vertex="1" parent="1">
          <mxGeometry x="830" y="555" width="250" height="78" as="geometry" />
        </mxCell>
        <mxCell id="EEpnmldtAj-1UgnT-heI-160" style="edgeStyle=orthogonalEdgeStyle;rounded=0;orthogonalLoop=1;jettySize=auto;html=1;endArrow=none;endFill=0;fontFamily=Times New Roman;fontSize=14;" edge="1" parent="EEpnmldtAj-1UgnT-heI-139" source="EEpnmldtAj-1UgnT-heI-140">
          <mxGeometry relative="1" as="geometry">
            <mxPoint x="-30" y="-60" as="targetPoint" />
          </mxGeometry>
        </mxCell>
        <mxCell id="EEpnmldtAj-1UgnT-heI-140" value="+ name: String" style="text;strokeColor=none;fillColor=none;align=left;verticalAlign=top;spacingLeft=4;spacingRight=4;overflow=hidden;rotatable=0;points=[[0,0.5],[1,0.5]];portConstraint=eastwest;whiteSpace=wrap;html=1;fontFamily=Times New Roman;fontSize=14;" vertex="1" parent="EEpnmldtAj-1UgnT-heI-139">
          <mxGeometry y="26" width="250" height="26" as="geometry" />
        </mxCell>
        <mxCell id="EEpnmldtAj-1UgnT-heI-141" value="+ arguments: String" style="text;strokeColor=none;fillColor=none;align=left;verticalAlign=top;spacingLeft=4;spacingRight=4;overflow=hidden;rotatable=0;points=[[0,0.5],[1,0.5]];portConstraint=eastwest;whiteSpace=wrap;html=1;fontFamily=Times New Roman;fontSize=14;" vertex="1" parent="EEpnmldtAj-1UgnT-heI-139">
          <mxGeometry y="52" width="250" height="26" as="geometry" />
        </mxCell>
        <mxCell id="EEpnmldtAj-1UgnT-heI-159" style="edgeStyle=orthogonalEdgeStyle;rounded=0;orthogonalLoop=1;jettySize=auto;html=1;endArrow=none;endFill=0;fontFamily=Times New Roman;fontSize=14;" edge="1" parent="1" source="EEpnmldtAj-1UgnT-heI-142">
          <mxGeometry relative="1" as="geometry">
            <mxPoint x="800" y="505" as="targetPoint" />
          </mxGeometry>
        </mxCell>
        <mxCell id="EEpnmldtAj-1UgnT-heI-142" value="OtherExpressionStatementNode" style="swimlane;fontStyle=0;childLayout=stackLayout;horizontal=1;startSize=26;fillColor=none;horizontalStack=0;resizeParent=1;resizeParentMax=0;resizeLast=0;collapsible=1;marginBottom=0;whiteSpace=wrap;html=1;fontFamily=Times New Roman;fontSize=14;" vertex="1" parent="1">
          <mxGeometry x="830" y="397" width="250" height="52" as="geometry" />
        </mxCell>
        <mxCell id="EEpnmldtAj-1UgnT-heI-143" value="+ body: String" style="text;strokeColor=none;fillColor=none;align=left;verticalAlign=top;spacingLeft=4;spacingRight=4;overflow=hidden;rotatable=0;points=[[0,0.5],[1,0.5]];portConstraint=eastwest;whiteSpace=wrap;html=1;fontFamily=Times New Roman;fontSize=14;" vertex="1" parent="EEpnmldtAj-1UgnT-heI-142">
          <mxGeometry y="26" width="250" height="26" as="geometry" />
        </mxCell>
        <mxCell id="EEpnmldtAj-1UgnT-heI-158" style="edgeStyle=orthogonalEdgeStyle;rounded=0;orthogonalLoop=1;jettySize=auto;html=1;entryX=1;entryY=0.5;entryDx=0;entryDy=0;endArrow=blockThin;endFill=0;endSize=16;fontFamily=Times New Roman;fontSize=14;" edge="1" parent="1" source="EEpnmldtAj-1UgnT-heI-145" target="EEpnmldtAj-1UgnT-heI-130">
          <mxGeometry relative="1" as="geometry" />
        </mxCell>
        <mxCell id="EEpnmldtAj-1UgnT-heI-145" value="NoOpStatementNode" style="swimlane;fontStyle=0;childLayout=stackLayout;horizontal=1;startSize=26;fillColor=none;horizontalStack=0;resizeParent=1;resizeParentMax=0;resizeLast=0;collapsible=1;marginBottom=0;whiteSpace=wrap;html=1;fontFamily=Times New Roman;fontSize=14;" vertex="1" parent="1">
          <mxGeometry x="830" y="475" width="250" height="52" as="geometry" />
        </mxCell>
        <mxCell id="EEpnmldtAj-1UgnT-heI-155" style="edgeStyle=orthogonalEdgeStyle;rounded=0;orthogonalLoop=1;jettySize=auto;html=1;endArrow=blockThin;endFill=0;endSize=16;fontFamily=Times New Roman;fontSize=14;" edge="1" parent="1" source="EEpnmldtAj-1UgnT-heI-135" target="EEpnmldtAj-1UgnT-heI-97">
          <mxGeometry relative="1" as="geometry" />
        </mxCell>
      </root>
    </mxGraphModel>
  </diagram>
</mxfile>
